# xmcd CD database file
#
# Track frame offsets:
#	150
#	21654
#	43255
#	73491
#	94545
#	119653
#	138668
#	163417
#	195460
#	231050
#
# Disc length: 3384 seconds
#
# Revision: 1
# Processed by: cddbd v1.5.2PL0 Copyright (c) Steve Scherf et al.
# Submitted via: CDex 1.51
#
DISCID=9c0d360a
DTITLE=Kashu - Breeze
DYEAR=2005
DGENRE=Jazz
TTITLE0=Quinten
TTITLE1=Free Shots
TTITLE2=Breeze
TTITLE3=Shehnaz Peshrev
TTITLE4=Incense
TTITLE5=Banzhang
TTITLE6=Nardis
TTITLE7=Sultani Yegah
TTITLE8=Al Hadba
TTITLE9=Song For Charlie
EXTD=YEAR: 2005
EXTT0=
EXTT1=
EXTT2=
EXTT3=
EXTT4=
EXTT5=
EXTT6=
EXTT7=
EXTT8=
EXTT9=
PLAYORDER=
